<svg id="Layer_165" fill ="#D44745" data-name="Layer 1" xmlns="http://www.w3.org/2000/svg" viewBox="0 0 193.96 192.08"><style>svg#Layer_165{ width: 75px; height: 75px;}</style><path d="M25.87,185.62H4.59c-3.6,0-4.58-1-4.58-4.51V138.48c0-3.61,1-4.58,4.5-4.58H25.88v-3.15a3.13,3.13,0,0,1,3-3.29h.35q12.84-.06,25.66,0a3.14,3.14,0,0,1,3.3,3,2.16,2.16,0,0,1,0,.36c.07,1.74,0,3.48,0,5.41l6.36-1.55V95.1H55.85c-3.64,0-5-2.17-3.39-5.43,3.94-7.9,8-15.73,11.78-23.62,1.15-2.4,2.65-3.61,5.32-3.24a11.85,11.85,0,0,0,1.46,0c0-2.85.18-5.53,0-8.19S69.1,50,67.21,48.17a28.86,28.86,0,0,1,1.14-43A36.7,36.7,0,0,1,75.84.52c2.78-1.4,5,.14,5,3.28v20a2.58,2.58,0,0,0,1.39,2.6c1.74,1,3.4,3,5.1,3s3.36-2,5.1-3a2.55,2.55,0,0,0,1.4-2.6c-.06-6.53,0-13.06,0-19.59C93.83.48,96-.86,99.38.67c17.86,8,22.94,31.75,9.43,45.91-4,4.19-5.94,8.43-5.3,14a16.68,16.68,0,0,1,0,2c.62,0,1.19.12,1.76.12h13.34c3.76,0,3.76,0,6.61-3.24h-5c-2.63,0-3.8-1.2-3.82-3.85V43.89c0-2.64,1.19-3.78,3.85-3.82h5c-1.47-1.47-2.62-2.56-3.71-3.71-1.66-1.76-1.71-3.44,0-5.15q4.23-4.34,8.57-8.57c1.79-1.74,3.45-1.69,5.29.08,1.1,1.07,2.14,2.2,3.63,3.72V21a3.22,3.22,0,0,1,2.9-3.51,3.32,3.32,0,0,1,.63,0q6.16-.06,12.32,0c2.27,0,3.46,1.26,3.52,3.53a26.24,26.24,0,0,0,.42,5.16c1-1.09,2-2.22,3.08-3.28,2-2,3.6-2,5.58-.07,2.78,2.73,5.55,5.49,8.28,8.28,1.85,1.89,1.79,3.5-.06,5.44-1,1.07-2.07,2.12-3.09,3.19a1.56,1.56,0,0,0,.07.37h4.73c2.38,0,3.6,1.23,3.62,3.63q.06,6.06,0,12.12c0,2.38-1.24,3.56-3.63,3.63-1.54,0-3.09,0-4.64.07l-.25.22c1.44,1.54,2.54,3.28,5.19,3.07a3.89,3.89,0,0,1,3,1.85c4.37,8.41,8.6,16.9,12.79,25.41,1.3,2.65-.17,4.88-3.17,4.94s-6,0-9.15,0v35.13a10.63,10.63,0,0,0,1.09.35,12.87,12.87,0,0,1,4.15,23.92c-8.3,4.87-16.65,9.65-25,14.46-9.44,5.45-18.9,10.85-28.31,16.35a25.55,25.55,0,0,1-13.26,3.57c-15-.06-30-.1-45,0a28.44,28.44,0,0,1-14.35-3.37c-.63-.35-1.31-.62-2.26-1.06v4.18a3.19,3.19,0,0,1-2.84,3.5,3.75,3.75,0,0,1-.58,0q-12.73.06-25.45,0c-2.15,0-3.33-1.27-3.43-3.42C25.84,187.72,25.87,186.79,25.87,185.62ZM58.2,142.84v2.37c0,9.7.09,19.4-.07,29.09a3.85,3.85,0,0,0,2.67,4.2c3.91,1.78,7.6,3.94,12.14,3.92,15.89-.08,31.79.07,47.67-.13a17.92,17.92,0,0,0,8.26-2.12c18.11-10.23,36.11-20.69,54-31.12,3.46-2,4.54-5.83,2.69-9a6.54,6.54,0,0,0-8.95-2.29l-.2.13q-15.49,8.88-30.92,17.88a2.79,2.79,0,0,0-1.19,2c-.46,8.6-8,14.31-16.3,12.14-12.68-3.29-25.33-6.73-38-10.13-2.29-.61-3.31-2.16-2.79-4.12s2.2-2.7,4.51-2.09q8.19,2.16,16.37,4.37c7.08,1.89,14.14,3.84,21.23,5.69,4.86,1.27,9.09-2.28,8.42-7.06-.47-3.32-2.77-4.83-5.81-5.64-14-3.73-28-7.54-42.08-11.27-3.75-1-7.51-2.55-11.47-1.68-6.73,1.48-13.44,3.21-20.22,4.86Zm68.29-62.3-.32.1v62c5.57,2,12.11,1.81,15.85,7.58l1.89-1c9.72-5.61,19.43-11.26,29.19-16.81a2.61,2.61,0,0,0,1.52-2.67V97c0-.59-.06-1.17-.1-1.9H136.88a4.3,4.3,0,0,1-4.42-2.74c-1.92-4-4-7.91-6-11.85ZM71.26,95.1v37.8c.79-.18,1.45-.29,2.09-.48a26.13,26.13,0,0,1,14.92.11c5.54,1.64,11.15,3,16.74,4.52,4.79,1.28,9.59,2.54,14.44,3.82V80.05c-2.27,4.52-4.33,8.53-6.29,12.58a3.91,3.91,0,0,1-4,2.46c-4.11-.07-8.22,0-12.33,0Zm29-86.37V26.34a4.31,4.31,0,0,1-2.15,4q-4.33,2.81-8.58,5.71a3.55,3.55,0,0,1-4.46,0c-2.77-1.91-5.56-3.79-8.4-5.59a4.53,4.53,0,0,1-2.33-4.33c.08-5.25,0-10.5,0-15.75a15.57,15.57,0,0,0-.17-1.55,22.41,22.41,0,0,0-2.5,34.64,17.44,17.44,0,0,1,5.92,14c-.07,1.72,0,3.44,0,5.13h6.46V54c0-2.66,1.24-4.19,3.32-4.13S90.5,51.37,90.51,54v8.67H97c0-1,.06-1.86,0-2.72-.6-6.88,1.71-12.33,6.7-17.33,9.66-9.67,7.91-26-3.45-33.85ZM51.58,185.54V134.05H32.45v51.54Zm8.73-97c.54,0,.85.11,1.17.11h45.05a2,2,0,0,0,2.11-1.4c2.41-4.89,4.86-9.75,7.29-14.63.53-1.06,1-2.13,1.57-3.24a4.56,4.56,0,0,0-.64-.14H71.2a2.9,2.9,0,0,0-2,1.43c-2.4,4.59-4.67,9.24-7,13.88-.6,1.31-1.22,2.56-1.89,4Zm125.2.11c-3-6.09-5.94-11.77-8.71-17.52a2.83,2.83,0,0,0-3-1.92c-14.48.08-29,0-43.44,0a18.1,18.1,0,0,0-2.11.09c.36.79.61,1.39.91,2,2.58,5.17,5.22,10.32,7.73,15.54a2.71,2.71,0,0,0,2.87,1.82c14.55-.06,29.09,0,43.64,0ZM6.62,140.36V179H25.76V140.44c-.42,0-.74-.07-1.06-.07ZM151.18,62.63H166a18.09,18.09,0,0,0-1.28-1.35c-1.81-1.5-2.08-3.16-1.13-5.37a4.15,4.15,0,0,1,4.55-2.86c2.12.1,4.25,0,6.37,0V46.6c-2.31,0-4.51-.06-6.72,0s-3.31-.89-4.13-2.82-.93-3.58.77-5.09,3.31-3.11,4.92-4.63l-4.69-4.79c-1.65,1.66-3.3,3.25-4.85,4.93s-3.21,1.47-5.12.66a3.85,3.85,0,0,1-2.73-4c.07-2.26,0-4.53,0-6.76h-6.47v6.81c.06,2-.94,3.17-2.77,4s-3.57,1-5.11-.72-3.13-3.31-4.73-5l-4.73,4.73c1.66,1.63,3.24,3.27,4.92,4.81s1.52,3.19.7,5.12-1.92,2.81-4,2.76c-2.26-.07-4.53,0-6.81,0v6.44h3.56a16.29,16.29,0,0,1,3.42,0c1.1.25,2.6.64,3.07,1.46,1.73,3,2.32,4.34-.53,6.9-.33.29-.6.65-1.09,1.19.6,0,.91.09,1.22.09H146c-8.32-3.8-11.5-9.14-9.83-16.07a12.93,12.93,0,0,1,25.39,1.62C162.4,54.72,158.45,60.3,151.18,62.63ZM148.7,43.38a6.46,6.46,0,1,0,6.48,6.44v-.06A6.48,6.48,0,0,0,148.7,43.38Z" transform="translate(-0.01 0)"/></svg>